<?xml version="1.0" standalone="no"?>
<!DOCTYPE svg PUBLIC "-//W3C//DTD SVG 1.1//EN" "http://www.w3.org/Graphics/SVG/1.1/DTD/svg11.dtd" >
<svg xmlns="http://www.w3.org/2000/svg">
<metadata>
This is a custom SVG webfont generated by Font Squirrel.
Copyright   : Copyright  1987 1991 1993 2002 Adobe Systems Incorporated  All Rights Reserved
Designer    : Paul Renner
Foundry URL : httpwwwadobecomtype
</metadata>
<defs>
<font id="FuturaStdHeavy" horiz-adv-x="1183" >
<font-face units-per-em="2048" ascent="1690" descent="-358" />
<missing-glyph horiz-adv-x="591" />
<glyph unicode=" "  horiz-adv-x="591" />
<glyph unicode="&#x09;" horiz-adv-x="591" />
<glyph unicode="&#xa0;" horiz-adv-x="591" />
<glyph unicode="!" horiz-adv-x="665" d="M150 143.5q0 75.5 53 128t129 52.5t129 -52.5t53 -128t-53 -130t-129 -54.5t-129 54.5t-53 130zM186 444v1100h291v-1100h-291z" />
<glyph unicode="&#x22;" horiz-adv-x="999" d="M180 1544h246l-37 -672h-172zM573 1544h246l-37 -672h-172z" />
<glyph unicode="#" d="M29 354v232h231l49 254h-196v231h239l80 416h217l-80 -416h207l80 416h215l-80 -416h164v-231h-201l-49 -254h193v-232h-242l-68 -354h-217l68 354h-207l-67 -354h-218l68 354h-186zM477 586h209l53 254h-213z" />
<glyph unicode="$" d="M111 293l182 176q111 -219 287 -219q88 0 143 59.5t55 147.5q0 35 -13 65.5t-27.5 49t-52.5 43t-55.5 33.5t-72.5 35t-70 32q-88 43 -143 82t-101 120.5t-46 192.5q0 172 93 289t259 147v191h149v-193q203 -25 326 -176l-137 -195q-96 125 -228 125q-70 0 -122 -46 t-52 -115q0 -37 13.5 -65t50.5 -54.5t60.5 -39.5t86 -42t82.5 -39q88 -43 144.5 -86t102.5 -129t46 -201q0 -180 -100.5 -313t-272.5 -168v-205h-149v195q-160 18 -260 89t-178 214z" />
<glyph unicode="%" horiz-adv-x="1581" d="M10 1219q0 160 104.5 263t262.5 103t262 -103.5t104 -262.5q0 -158 -104 -261.5t-262 -103.5t-262.5 103.5t-104.5 261.5zM213 1218.5q0 -75.5 45 -137t119 -61.5t119 61.5t45 137t-46 138t-118 62.5t-118 -62.5t-46 -138zM303 8l830 1589l139 -69l-828 -1591zM836 324 q0 160 104 263t262 103t262.5 -103.5t104.5 -262.5q0 -158 -104.5 -261.5t-262.5 -103.5t-262 103.5t-104 261.5zM1038 323.5q0 -75.5 45 -137t119 -61.5t119 61.5t45 137t-46 138t-118 62.5t-118 -62.5t-46 -138z" />
<glyph unicode="&#x26;" horiz-adv-x="1437" d="M68 410q0 250 223 401l92 63q-125 174 -125 328q0 170 112.5 276.5t280.5 106.5q170 0 283 -105.5t113 -275.5q0 -207 -254 -373l215 -276l155 199l191 -179l-166 -223l266 -352h-367l-124 156q-225 -197 -443 -197q-195 0 -323.5 128t-128.5 323zM371 436 q0 -76 55 -141.5t129 -65.5q43 0 89 23.5t70.5 45t69.5 64.5l-239 322q-53 -39 -84 -67.5t-60.5 -78t-29.5 -102.5zM543 1227q0 -63 37 -115l73 -104l52 43q86 74 86 168q0 59 -33 105t-88 46q-59 0 -93 -42t-34 -101z" />
<glyph unicode="'" horiz-adv-x="606" d="M180 1544h246l-37 -672h-172z" />
<glyph unicode="(" horiz-adv-x="555" d="M152 676q0 268 51 541.5t155 486.5l177 -119q-168 -381 -168 -921q0 -553 168 -920l-177 -121q-206 408 -206 1053z" />
<glyph unicode=")" horiz-adv-x="555" d="M20 -256q168 367 168 920q0 541 -168 921l177 119q104 -213 155 -486.5t51 -541.5q0 -645 -206 -1053z" />
<glyph unicode="*" horiz-adv-x="854" d="M111 1307l71 137l164 -107l-6 207h176l-4 -207l158 107l73 -137l-165 -103l165 -102l-73 -137l-158 106l4 -203h-176l6 203l-160 -106l-73 137l161 102z" />
<glyph unicode="+" d="M68 403v242h403v404h242v-404h403v-242h-403v-403h-242v403h-403z" />
<glyph unicode="," horiz-adv-x="591" d="M53 -303l223 622l263 -28l-295 -617z" />
<glyph unicode="-" horiz-adv-x="675" d="M88 539v235h500v-235h-500z" />
<glyph unicode="." horiz-adv-x="591" d="M115 143.5q0 75.5 53 128t129 52.5t129 -52.5t53 -128t-53 -130t-129 -54.5t-129 54.5t-53 130z" />
<glyph unicode="/" horiz-adv-x="1103" d="M76 -260l753 1997l199 -72l-754 -1997z" />
<glyph unicode="0" d="M39 770q0 104 17.5 212t58.5 218.5t102.5 194.5t158.5 137t216 53t216 -53t158.5 -137t102.5 -194.5t58.5 -218.5t17.5 -212t-17.5 -210.5t-59.5 -216.5t-103.5 -193.5t-158.5 -137t-214 -53.5t-214 53.5t-158.5 137t-103.5 193.5t-59.5 216.5t-17.5 210.5zM334 774 q0 -70 11 -152.5t37 -179t81 -159t129 -62.5q76 0 130 62.5t79.5 159t37 178t11.5 153.5t-11.5 154t-37 177t-79.5 156.5t-130 61.5q-74 0 -129 -61.5t-81 -156.5t-37 -177t-11 -154z" />
<glyph unicode="1" d="M297 1282v262h504v-1544h-301v1282h-203z" />
<glyph unicode="2" d="M57 0l394 496q2 2 34.5 43l41.5 53l42 54l47 62l42 60t42 67l34 62q19 37 28.5 63.5t16.5 57.5t7 55q0 92 -55 171t-143 79q-94 0 -146 -83q-46 -74 -45 -160v-21h-319q16 233 147 379.5t361 146.5q213 0 357 -143.5t144 -354.5q0 -154 -69.5 -282.5t-198.5 -278.5 l-227 -264h506v-262h-1041z" />
<glyph unicode="3" d="M63 446h304q4 -96 64.5 -160.5t156.5 -64.5t151.5 75t55.5 173q0 100 -61 177q-55 69 -138 70q-9 0 -18 -1l-56 -4v215h33q94 0 145.5 57t51.5 156q0 82 -47.5 139t-129.5 57q-76 0 -119.5 -58t-47.5 -136h-287q20 203 144 323.5t329 120.5q201 0 322.5 -118.5 t121.5 -317.5q0 -96 -36.5 -184t-110.5 -138q98 -43 148.5 -150.5t50.5 -225.5q0 -223 -144.5 -357.5t-370.5 -134.5q-211 0 -355.5 139t-156.5 348z" />
<glyph unicode="4" d="M6 272v136l688 1165h275v-1059h164v-242h-164v-272h-283v272h-680zM356 514h330v614h-4z" />
<glyph unicode="5" d="M66 164l90 258q63 -90 154 -145.5t194 -55.5q123 0 199.5 90t76.5 215q0 127 -87 217.5t-214 90.5q-141 0 -248 -101h-47l166 811h672v-262h-459l-53 -235l78 4q219 0 358 -157t139 -380q0 -248 -156.5 -401.5t-404.5 -153.5q-278 0 -458 205z" />
<glyph unicode="6" d="M43 483q0 236 188 516l410 609l221 -160l-317 -449l4 -4q49 20 121 21q205 0 331.5 -151.5t126.5 -360.5q0 -238 -153.5 -391.5t-390.5 -153.5q-231 0 -386 147.5t-155 376.5zM336 491.5q0 -110.5 68.5 -198.5t177 -88t176 88t67.5 199q0 113 -67.5 200.5t-176 87.5 t-177 -89t-68.5 -199.5z" />
<glyph unicode="7" d="M88 1282v262h1104l-846 -1585l-248 141l637 1182h-647z" />
<glyph unicode="8" d="M92 412q0 137 63.5 241.5t186.5 151.5q-94 47 -148.5 140t-54.5 200q0 195 129 317.5t323.5 122.5t323.5 -123t129 -317q0 -106 -54 -199.5t-148 -140.5q123 -47 186.5 -151.5t63.5 -241.5q0 -201 -148.5 -327t-351.5 -126t-351.5 126t-148.5 327zM395 444.5 q0 -92.5 54.5 -164t142.5 -71.5t142 71.5t54 164t-54 165t-142 72.5t-142.5 -72.5t-54.5 -165zM414 1145q0 -84 49 -150.5t129 -66.5t129 66.5t49 150.5q0 82 -49 148.5t-129 66.5t-129 -66.5t-49 -148.5z" />
<glyph unicode="9" d="M53 1038q0 240 153.5 393.5t391.5 153.5q231 0 386 -147.5t155 -378.5q0 -236 -189 -516l-409 -609l-222 162l318 449l-4 4q-55 -23 -121 -23q-205 0 -332 151.5t-127 360.5zM356 1050.5q0 -112.5 68 -200.5t176.5 -88t177 89t68.5 199.5t-68.5 199.5t-177 89t-176.5 -88 t-68 -200.5z" />
<glyph unicode=":" horiz-adv-x="591" d="M115 143.5q0 75.5 53 128t129 52.5t129 -52.5t53 -128t-53 -130t-129 -54.5t-129 54.5t-53 130zM115 880.5q0 75.5 53 128t129 52.5t129 -52.5t53 -128t-53 -130t-129 -54.5t-129 54.5t-53 130z" />
<glyph unicode=";" horiz-adv-x="591" d="M33 -303l223 622l262 -28l-295 -617zM197 880.5q0 75.5 53 128t129 52.5t129 -52.5t53 -128t-53 -130t-129 -54.5t-129 54.5t-53 130z" />
<glyph unicode="&#x3c;" d="M68 401v246l1048 373v-258l-665 -236v-4l665 -235v-258z" />
<glyph unicode="=" d="M68 162v241h1048v-241h-1048zM68 645v242h1048v-242h-1048z" />
<glyph unicode="&#x3e;" d="M68 29v258l665 235v4l-665 236v258l1048 -373v-246z" />
<glyph unicode="?" horiz-adv-x="997" d="M61 1143v22q0 170 120 291q128 129 315 129q188 0 314 -126t126 -314q0 -152 -91 -270.5t-239 -151.5l-16 -197h-287v408q33 -8 74 -8q109 0 185.5 61.5t76.5 167.5q0 70 -38 125t-103.5 55t-101.5 -50t-36 -118v-24h-299zM268 143.5q0 75.5 53.5 128t129 52.5t129 -52.5 t53.5 -128t-53.5 -130t-129 -54.5t-129 54.5t-53.5 130z" />
<glyph unicode="@" horiz-adv-x="1996" d="M252 772q0 346 226.5 579.5t555.5 233.5q287 0 482 -180q229 -199 229 -475q0 -272 -127 -438q-135 -181 -301 -181h-14q-90 4 -111 127q-127 -127 -279 -127q-137 0 -240.5 113t-103.5 270q0 197 117 344.5t301 147.5q162 0 273 -148l28 129h146l-103 -532 q-17 -50 -17 -108q0 -68 46 -68q74 0 141.5 123t67.5 274q0 256 -150.5 404.5t-390.5 148.5q-256 0 -428 -183.5t-172 -453.5q0 -279 189.5 -458t457.5 -179q248 0 369 88l153 -123q-129 -72 -247.5 -106.5t-302.5 -34.5q-334 0 -564.5 232.5t-230.5 580.5zM745 709 q0 -96 48.5 -159t140.5 -63q240 0 274 275q3 25 3 47q0 88 -45 138q-56 62 -167 63q-119 0 -186.5 -89t-67.5 -212z" />
<glyph unicode="A" horiz-adv-x="1384" d="M-18 0l602 1585h233l586 -1585h-322l-118 326h-537l-127 -326h-317zM512 571h367l-193 562h-4z" />
<glyph unicode="B" horiz-adv-x="1132" d="M111 0v1544h374q225 0 344 -99t119 -321q0 -90 -33.5 -173t-101.5 -126q129 -23 196.5 -135t67.5 -252q0 -217 -136 -327.5t-357 -110.5h-473zM412 672v-430h63q70 0 117 7t93 27.5t68.5 67.5t22.5 119q0 57 -19.5 98t-46 62.5t-73.5 33t-83 13.5t-93 2h-49zM412 901h37 q117 0 168 44t51 159q0 111 -56.5 155t-160.5 44h-39v-402z" />
<glyph unicode="C" horiz-adv-x="1230" d="M37 760q0 219 94 407.5t271.5 303t396.5 114.5q180 0 344 -90v-360q-135 164 -340 163q-207 0 -331 -159.5t-124 -372.5q0 -207 126 -363.5t327 -156.5q94 0 185 45t157 119v-359q-195 -92 -350 -92q-319 0 -537.5 237.5t-218.5 563.5z" />
<glyph unicode="D" horiz-adv-x="1323" d="M111 0v1544h430q332 0 538.5 -220t206.5 -554q0 -330 -210 -550t-537 -220h-428zM412 262h49q514 0 514 510t-514 510h-49v-1020z" />
<glyph unicode="E" horiz-adv-x="999" d="M111 0v1544h798v-262h-497v-340h479v-262h-479v-418h497v-262h-798z" />
<glyph unicode="F" horiz-adv-x="948" d="M111 0v1544h766v-262h-465v-340h436v-262h-436v-680h-301z" />
<glyph unicode="G" horiz-adv-x="1513" d="M37 766q0 342 209 580.5t545 238.5q199 0 360.5 -96t249.5 -272l-266 -144q-47 109 -141.5 177.5t-211.5 68.5q-203 0 -318.5 -170t-115.5 -383q0 -133 47 -254t149.5 -204t239.5 -83q139 0 244 104.5t109 245.5h-328v246h666v-39q0 -168 -43 -313t-127 -261 t-221.5 -182.5t-311.5 -66.5q-217 0 -388 113.5t-259 296t-88 397.5z" />
<glyph unicode="H" horiz-adv-x="1380" d="M111 0v1544h301v-608h557v608h301v-1544h-301v690h-557v-690h-301z" />
<glyph unicode="I" horiz-adv-x="520" d="M111 0v1544h301v-1544h-301z" />
<glyph unicode="J" horiz-adv-x="796" d="M-45 104l192 222q12 -37 47 -69t70 -32q25 0 44.5 8.5t31.5 24.5t22.5 34.5t16.5 46.5t9 48.5t4 53t1 49.5v48v37v969h301v-1020q0 -88 -4 -140t-24.5 -121.5t-61.5 -129.5q-119 -174 -346 -174q-80 0 -162 41t-141 104z" />
<glyph unicode="K" horiz-adv-x="1269" d="M111 0v1544h301v-651h4l477 651h371l-586 -713l618 -831h-387l-493 694h-4v-694h-301z" />
<glyph unicode="L" horiz-adv-x="823" d="M111 0v1544h301v-1282h426v-262h-727z" />
<glyph unicode="M" horiz-adv-x="1712" d="M23 0l260 1585h213l381 -1018l364 1018h217l232 -1585h-304l-122 958h-4l-351 -978h-104l-338 978h-4l-137 -958h-303z" />
<glyph unicode="N" horiz-adv-x="1554" d="M111 0v1585h217l813 -1079h4v1038h301v-1575h-217l-813 1080h-4v-1049h-301z" />
<glyph unicode="O" horiz-adv-x="1601" d="M37 774q0 350 212 580.5t552 230.5t552 -230.5t212 -580.5t-209 -582.5t-555 -232.5t-555 232.5t-209 582.5zM348 786q0 -94 24.5 -184t76 -170t142.5 -128t210 -48t210 48t142 128t75.5 170t24.5 184q0 199 -124.5 350.5t-327.5 151.5t-328 -151.5t-125 -350.5z" />
<glyph unicode="P" horiz-adv-x="1081" d="M111 0v1544h409q535 0 535 -479q0 -244 -127 -365.5t-367 -121.5h-149v-578h-301zM412 1294v-467h61q145 0 210 49.5t65 190.5q0 137 -70 182t-213 45h-53z" />
<glyph unicode="Q" horiz-adv-x="1601" d="M37 774q0 332 217 571.5t546.5 239.5t547 -239.5t217.5 -571.5q0 -324 -183 -559l211 -250l-303 -31l-106 129q-156 -104 -383 -104q-332 0 -548 238.5t-216 576.5zM348 756q0 -205 121 -355.5t332 -150.5q84 0 162 51l-254 293l311 24l137 -155q96 119 96 319 q0 199 -129 357.5t-323 158.5q-209 0 -331 -163.5t-122 -378.5z" />
<glyph unicode="R" horiz-adv-x="1142" d="M111 0v1544h407q242 0 379 -113.5t137 -351.5q0 -156 -84 -279.5t-231 -148.5l436 -651h-364l-375 623h-4v-623h-301zM412 834h39q137 0 209.5 52t72.5 185t-72.5 180t-207.5 47h-41v-464z" />
<glyph unicode="S" horiz-adv-x="1077" d="M47 260l195 191q33 -94 109.5 -160t168.5 -66q90 0 144.5 65.5t54.5 158.5q0 70 -43 121t-80 69t-121 51q-16 6 -24 10q-170 70 -257.5 163t-87.5 259q0 195 129.5 329t321.5 134q106 0 230 -48t192 -124l-141 -209q-94 127 -232 127q-74 0 -131 -50t-57 -124 q0 -51 33.5 -91t88 -65.5t120 -52t130 -62.5t119 -84t88 -129t33.5 -186q0 -236 -137 -382t-371 -146q-295 0 -475 301z" />
<glyph unicode="T" horiz-adv-x="923" d="M0 1282v262h924v-262h-312v-1282h-301v1282h-311z" />
<glyph unicode="U" horiz-adv-x="1351" d="M102 621v923h301v-864q0 -70 3.5 -122t19.5 -120.5t43 -111.5t80 -74t127 -31t127 31t79.5 74t43 111.5t19.5 120.5t3 122v864h301v-923q0 -303 -139 -482.5t-434 -179.5t-434.5 179.5t-139.5 482.5z" />
<glyph unicode="V" horiz-adv-x="1308" d="M-29 1544h324l371 -1040h4l344 1040h323l-600 -1585h-176z" />
<glyph unicode="W" horiz-adv-x="2000" d="M-29 1544h316l311 -1052h4l307 1073h178l320 -1073h4l303 1052h316l-523 -1575h-221l-307 1010h-4l-291 -1010h-221z" />
<glyph unicode="X" horiz-adv-x="1275" d="M-16 0l493 817l-416 727h357l246 -479l225 479h356l-428 -727l475 -817h-350l-311 565l-295 -565h-352z" />
<glyph unicode="Y" horiz-adv-x="1202" d="M-33 1544h350l271 -536l295 536h352l-487 -835v-709h-302v709z" />
<glyph unicode="Z" horiz-adv-x="1177" d="M10 0l680 1282h-575v262h1052l-678 -1282h641v-262h-1120z" />
<glyph unicode="[" horiz-adv-x="589" d="M92 -186v1917h406v-187h-189v-1544h189v-186h-406z" />
<glyph unicode="\" horiz-adv-x="1103" d="M61 1737h230l753 -1737h-229z" />
<glyph unicode="]" horiz-adv-x="589" d="M92 0h189v1544h-189v187h406v-1917h-406v186z" />
<glyph unicode="^" d="M68 674l395 870h254l399 -870h-264l-260 579l-260 -579h-264z" />
<glyph unicode="_" horiz-adv-x="1024" d="M0 -154h1024v-102h-1024v102z" />
<glyph unicode="`" horiz-adv-x="778" d="M162 1458l209 127l245 -344l-145 -90z" />
<glyph unicode="a" horiz-adv-x="1157" d="M31 508q0 213 126 371.5t332 158.5q172 0 281 -127v95h283v-1006h-283v92h-4q-96 -125 -272 -125q-211 0 -337 162t-126 379zM322 503.5q0 -108.5 66.5 -195.5t171 -87t172 87t67.5 195.5t-67.5 194.5t-172 86t-171 -86t-66.5 -194.5z" />
<glyph unicode="b" horiz-adv-x="1157" d="M102 0v1737h287v-824q104 125 279 125q205 0 331.5 -160.5t126.5 -369.5q0 -219 -126 -380t-338 -161q-80 0 -154 34t-115 93h-4v-94h-287zM360 503.5q0 -108.5 67 -195.5t171 -87t171 87t67 195.5t-67 194.5t-171 86t-171 -86t-67 -194.5z" />
<glyph unicode="c" horiz-adv-x="862" d="M31 500q0 227 148.5 382.5t373.5 155.5q131 0 233 -63v-277q-98 98 -211 99q-115 0 -184 -90.5t-69 -208.5q0 -123 72.5 -206t191.5 -83q115 0 200 96v-276q-111 -61 -247 -62q-219 0 -363.5 156t-144.5 377z" />
<glyph unicode="d" horiz-adv-x="1157" d="M31 508q0 213 126 371.5t332 158.5q80 0 154 -32.5t121 -92.5h4v824h287v-1737h-287v94h-4q-43 -59 -117 -93t-153 -34q-211 0 -337 162t-126 379zM322 503.5q0 -108.5 66.5 -195.5t171 -87t171 87t66.5 195.5t-66.5 194.5t-171 86t-171 -86t-66.5 -194.5z" />
<glyph unicode="e" horiz-adv-x="1026" d="M31 494q0 240 126 392t361.5 152t356 -152.5t120.5 -393.5v-35h-661q0 -111 48 -191t150 -80q125 0 193 138l264 -43q-51 -150 -174 -232t-283 -82q-229 0 -365 147t-136 380zM342 635h383q-12 84 -62.5 143.5t-127.5 59.5q-82 0 -131.5 -58.5t-61.5 -144.5z" />
<glyph unicode="f" horiz-adv-x="620" d="M16 764v242h97v294q0 203 92 332t287 129q74 0 137 -32v-256q-70 35 -117 34q-20 0 -36.5 -5t-29 -17t-20.5 -23.5t-13 -31l-8.5 -33t-4.5 -38t-1 -35.5v-35v-29v-254h230v-242h-230v-764h-286v764h-97z" />
<glyph unicode="g" horiz-adv-x="1150" d="M31 496q0 221 127 381.5t340 160.5q76 0 146.5 -34.5t113.5 -94.5h4v97h287v-945q0 -598 -488 -598q-197 0 -347.5 113t-160.5 305h303q10 -80 63.5 -128t135.5 -48q72 0 117 27.5t63.5 84t22.5 100.5t4 118v65h-4q-45 -61 -120 -97t-155 -36q-211 0 -331.5 156 t-120.5 373zM322 501.5q0 -108.5 66.5 -194.5t171 -86t171 86t66.5 194.5t-66.5 195.5t-171 87t-171 -87t-66.5 -195.5z" />
<glyph unicode="h" horiz-adv-x="1105" d="M102 0v1737h287v-815h4q84 117 262 116q348 0 349 -424v-614h-287v532v78q0 20 -8.5 68.5t-22.5 70t-46 41t-79 19.5q-59 0 -97 -28.5t-52.5 -85t-18.5 -95.5t-4 -102v-498h-287z" />
<glyph unicode="i" horiz-adv-x="518" d="M90 1427q0 70 50 120t120 50t120 -50t50 -120q0 -72 -49 -121t-121 -49t-121 49t-49 121zM117 0v1006h286v-1006h-286z" />
<glyph unicode="j" horiz-adv-x="518" d="M90 1427q0 70 50 120t120 50t120 -50t50 -120q0 -72 -49 -121t-121 -49t-121 49t-49 121zM117 -537v1543h286v-1543h-286z" />
<glyph unicode="k" horiz-adv-x="1077" d="M102 0v1737h287v-1100h4l301 369h373l-424 -443l457 -563h-377l-330 428h-4v-428h-287z" />
<glyph unicode="l" horiz-adv-x="489" d="M102 0v1737h287v-1737h-287z" />
<glyph unicode="m" horiz-adv-x="1642" d="M102 0v1006h287v-91h4q86 123 246 123q193 0 289 -157q45 74 125 115.5t168 41.5q319 0 319 -411v-627h-287v528q0 172 -36 230q-33 51 -99 51q-45 0 -75.5 -24.5t-46 -54.5t-22.5 -82t-8 -79.5t-1 -74.5v-494h-287v510v20v71q0 26 -7 71t-20.5 70.5t-42 46t-67.5 20.5 q-53 0 -87 -28.5t-46.5 -84t-15.5 -91.5t-3 -97v-14v-494h-287z" />
<glyph unicode="n" horiz-adv-x="1105" d="M102 0v1006h287v-93h4q82 125 262 125q348 0 349 -424v-614h-287v532v78q0 20 -8.5 68.5t-22.5 70t-46 41t-79 19.5q-59 0 -97 -28.5t-52.5 -85t-18.5 -95.5t-4 -102v-498h-287z" />
<glyph unicode="o" horiz-adv-x="1122" d="M33 501.5q0 235.5 147.5 386t381 150.5t381 -150.5t147.5 -386t-146.5 -385t-382 -149.5t-382 149.5t-146.5 385zM324 502q0 -109 66.5 -195t171 -86t171 86t66.5 195q0 111 -65.5 196.5t-172 85.5t-172 -85.5t-65.5 -196.5z" />
<glyph unicode="p" horiz-adv-x="1157" d="M102 -537v1543h287v-93q104 125 279 125q205 0 331.5 -160.5t126.5 -369.5q0 -219 -126 -380t-338 -161q-80 0 -154 34t-115 93h-4v-631h-287zM360 503.5q0 -108.5 67 -195.5t171 -87t171 87t67 195.5t-67 194.5t-171 86t-171 -86t-67 -194.5z" />
<glyph unicode="q" horiz-adv-x="1157" d="M31 508q0 213 126 371.5t332 158.5q80 0 154 -32.5t121 -92.5h4v93h287v-1543h-287v631h-4q-43 -59 -117 -93t-153 -34q-211 0 -337 162t-126 379zM322 503.5q0 -108.5 66.5 -195.5t171 -87t171 87t66.5 195.5t-66.5 194.5t-171 86t-171 -86t-66.5 -194.5z" />
<glyph unicode="r" horiz-adv-x="751" d="M102 0v1006h287v-105h4q90 137 250 137q55 0 119 -24l-35 -266q-51 37 -119 36q-57 0 -99 -20.5t-64.5 -51t-36 -77.5t-16.5 -88t-3 -94v-453h-287z" />
<glyph unicode="s" horiz-adv-x="839" d="M41 135l131 170q104 -117 213 -117q49 0 82 30t33 79q0 25 -9.5 44t-34 35.5t-42 25t-58.5 24.5l-57 23q-94 41 -147.5 98t-53.5 166q0 141 89 233t231 92q205 0 323 -104l-123 -166q-74 70 -151 70q-37 0 -65.5 -26t-28.5 -60q0 -20 10 -38t33.5 -31t44 -22.5 t58.5 -23.5t61 -25q94 -41 150 -105.5t56 -182.5q0 -162 -113.5 -259.5t-277.5 -97.5q-215 0 -354 168z" />
<glyph unicode="t" horiz-adv-x="561" d="M39 764v242h98v340h287v-340h176v-242h-176v-764h-287v764h-98z" />
<glyph unicode="u" horiz-adv-x="1095" d="M96 414v592h287v-545q0 -252 164 -252t164 252v545h286v-592q0 -446 -450.5 -446t-450.5 446z" />
<glyph unicode="v" horiz-adv-x="999" d="M-37 1006h316l235 -568l207 568h313l-463 -1026h-147z" />
<glyph unicode="w" horiz-adv-x="1603" d="M-37 1006h313l209 -580l246 612h137l248 -620l213 588h311l-466 -1026h-146l-215 612l-240 -612h-147z" />
<glyph unicode="x" horiz-adv-x="1124" d="M-37 0l430 547l-346 459h348l187 -261l159 261h353l-357 -459l424 -547h-352l-258 350l-232 -350h-356z" />
<glyph unicode="y" horiz-adv-x="1064" d="M-37 1006h326l239 -572l258 572h320l-731 -1543h-316l332 691z" />
<glyph unicode="z" horiz-adv-x="985" d="M-2 0l514 764h-434v242h907l-510 -764h477v-242h-954z" />
<glyph unicode="{" horiz-adv-x="796" d="M139 764q154 68 154 309v373q0 113 60.5 191.5t113.5 78.5h188v-186h-82q-31 0 -45 -20.5t-16 -41t-2 -65.5v-363q0 -106 -37 -191t-64.5 -113.5t-54.5 -47.5q16 -10 37 -30.5t50.5 -60.5t49 -108.5t19.5 -150.5v-363q0 -45 2 -65.5t16.5 -41t44.5 -20.5h82v-186h-188 q-53 0 -113.5 79t-60.5 191v373q0 242 -154 309v150z" />
<glyph unicode="|" horiz-adv-x="1101" d="M430 -438v2048h242v-2048h-242z" />
<glyph unicode="}" horiz-adv-x="796" d="M141 -152h82q31 0 45.5 20.5t16.5 41t2 65.5v363q0 82 19.5 150.5t49 108.5t50 60.5t36.5 30.5q-27 18 -54.5 47t-64 114t-36.5 191v363q0 45 -2 65.5t-16.5 41t-45.5 20.5h-82v186h189q53 0 113.5 -78.5t60.5 -191.5v-373q0 -242 153 -309v-150q-154 -68 -153 -309v-373 q0 -113 -60.5 -191.5t-113.5 -78.5h-189v186z" />
<glyph unicode="~" d="M68 487l58 85q44 65 73.5 103t80 73.5t101.5 35.5q96 0 229 -104q113 -96 193 -96q53 0 110 159l203 -184l-57 -96q-20 -33 -64.5 -88.5t-91.5 -82t-98 -26.5q-20 0 -43 4t-38 9.5t-38.5 17.5l-34.5 18l-35 22q-25 15 -30 19q-20 12 -69.5 47t-78 48.5t-53.5 13.5 q-49 0 -115 -158z" />
<glyph unicode="&#xa1;" horiz-adv-x="665" d="M150 872.5q0 75.5 53 128t129 52.5t129 -52.5t53 -128t-53 -130t-129 -54.5t-129 54.5t-53 130zM186 -541v1100h291v-1100h-291z" />
<glyph unicode="&#xa2;" d="M215 776q0 209 115.5 358.5t316.5 176.5v172h150v-178q115 -20 170 -52v-288q-92 102 -207 102t-184.5 -89t-69.5 -208q0 -117 70.5 -201t185.5 -84q131 0 201 103h4v-289q-78 -41 -170 -51v-191h-150v187q-197 16 -314.5 172.5t-117.5 359.5z" />
<glyph unicode="&#xa3;" d="M20 39q94 291 299 299q23 61 23 121q0 88 -45 172h-268v135h190q-84 168 -84 313q0 221 148.5 363.5t369.5 142.5q463 0 488 -528l-301 -35l4 70v11q0 82 -54 153q-58 77 -145 77q-100 0 -156.5 -78.5t-56.5 -183.5q0 -113 86 -285l10 -20h279v-135h-229q9 -52 9 -116 q0 -21 -1 -44q0 -25 -4 -78t-4 -78l137 -55q78 -33 129 -33q78 0 112 121l213 -45q-80 -319 -315 -319q-86 0 -244 59q-154 59 -229 59q-104 0 -137 -102z" />
<glyph unicode="&#xa4;" d="M25 227l122 113q-78 117 -77.5 274.5t77.5 274.5l-122 112l151 152l127 -117q113 90 289 90t289 -90l127 117l151 -152l-123 -112q78 -117 78 -274.5t-78 -274.5l123 -113l-151 -151l-127 117q-113 -90 -289 -90.5t-289 90.5l-127 -117zM266 614q0 -133 94.5 -224 t231.5 -91t231.5 91t94.5 224q0 139 -92.5 227.5t-233.5 88.5t-233.5 -88.5t-92.5 -227.5z" />
<glyph unicode="&#xa5;" d="M-43 1544h350l283 -536l284 536h351l-357 -624h275v-136h-359l-43 -75v-74h402v-135h-402v-500h-301v500h-401v135h401v74l-49 75h-352v136h274z" />
<glyph unicode="&#xa6;" horiz-adv-x="1101" d="M430 -182v512h242v-512h-242zM430 842v512h242v-512h-242z" />
<glyph unicode="&#xa7;" horiz-adv-x="1181" d="M82 817q0 186 151 334q-68 100 -67 229q0 170 117.5 275.5t291.5 105.5q170 0 287 -97t125 -263h-256q-8 63 -49 106t-107 43q-57 0 -91.5 -46t-34.5 -105q0 -37 12 -66.5t44 -55.5t49 -37t62 -36l220 -123q135 -76 199.5 -147.5t64.5 -200.5q0 -90 -39 -178t-105 -149 q82 -96 82 -252q0 -184 -126 -304t-328 -120q-213 0 -352 129q-129 120 -128 315v29h283q-2 -94 53.5 -168t147.5 -74q74 0 120 54.5t46 127.5q0 37 -13.5 67t-45 56.5t-50 37.5l-63.5 36l-273 147q-115 61 -171 136t-56 194zM338 879q0 -18 4 -36t7 -29t15.5 -25.5 t16.5 -20.5t23.5 -19.5t23.5 -15.5t28.5 -16.5t26.5 -16.5l285 -174q76 63 76 160q0 59 -30 92t-91 70q-10 6 -14 8l-289 178q-82 -61 -82 -155z" />
<glyph unicode="&#xa8;" horiz-adv-x="819" d="M31 1396.5q0 67.5 48 116t115.5 48.5t115.5 -48.5t48 -116t-48 -115.5t-115.5 -48t-115.5 48t-48 115.5zM463 1396.5q0 67.5 48 116t115.5 48.5t116 -48.5t48.5 -116t-48.5 -115.5t-116 -48t-115.5 48t-48 115.5z" />
<glyph unicode="&#xa9;" horiz-adv-x="1638" d="M12 772q0 340 234.5 576.5t572.5 236.5t572.5 -236.5t234.5 -576.5t-234.5 -576.5t-572.5 -236.5t-572.5 236.5t-234.5 576.5zM188 772q0 -270 184.5 -453.5t446.5 -183.5t446.5 183.5t184.5 453.5t-183.5 453.5t-447.5 183.5t-447.5 -183.5t-183.5 -453.5zM362 778 q0 205 131.5 350.5t325.5 145.5q164 0 274.5 -92t139.5 -242h-180q-16 76 -84 117t-150 41q-121 0 -200.5 -97.5t-79.5 -222.5t79.5 -222t200.5 -97q82 0 149.5 41t84.5 116h180q-29 -150 -139.5 -241.5t-274.5 -91.5q-195 0 -326 145t-131 350z" />
<glyph unicode="&#xaa;" horiz-adv-x="694" d="M16 1266q0 127 82 223t217 96q113 0 183 -76v56h182v-602h-182v55h-4q-59 -76 -177 -76q-137 0 -219 97.5t-82 226.5zM205 1264q0 -63 44 -116.5t111.5 -53.5t111.5 53t44 117q0 66 -43 118t-112.5 52t-112.5 -52t-43 -118z" />
<glyph unicode="&#xab;" horiz-adv-x="1052" d="M37 655l325 498l177 -115l-254 -383l256 -372l-179 -119zM446 655l326 498l176 -115l-254 -383l256 -372l-178 -119z" />
<glyph unicode="&#xac;" d="M68 645v242h1048v-596h-242v354h-806z" />
<glyph unicode="&#xad;" horiz-adv-x="675" d="M88 539v235h500v-235h-500z" />
<glyph unicode="&#xae;" horiz-adv-x="1638" d="M12 772q0 340 234.5 576.5t572.5 236.5t572.5 -236.5t234.5 -576.5t-234.5 -576.5t-572.5 -236.5t-572.5 236.5t-234.5 576.5zM188 772q0 -270 184.5 -453.5t446.5 -183.5t446.5 183.5t184.5 453.5t-183.5 453.5t-447.5 183.5t-447.5 -183.5t-183.5 -453.5zM481 354v844 h410q166 0 247 -51t81 -207q0 -233 -230 -250l205 -336h-193l-196 336h-148v-336h-176zM657 842h238q78 0 115 23.5t37 88.5q0 33 -16.5 53.5t-52.5 27.5t-59.5 9.5t-66.5 2.5h-195v-205z" />
<glyph unicode="&#xaf;" horiz-adv-x="819" d="M18 1364v180h783v-180h-783z" />
<glyph unicode="&#xb0;" horiz-adv-x="819" d="M102 1284q0 123 89 211q91 90 218.5 90t217.5 -90t90 -217t-90 -217t-217 -90t-217.5 90.5t-90.5 222.5zM293 1158q49 -48 118.5 -48t118 49t48.5 119t-50.5 119t-120 49t-118.5 -49q-47 -47 -47 -114q0 -75 51 -125z" />
<glyph unicode="&#xb1;" d="M68 0v242h1048v-242h-1048zM68 696v242h403v352h242v-352h403v-242h-403v-352h-242v352h-403z" />
<glyph unicode="&#xb2;" horiz-adv-x="708" d="M16 618l256 297q2 2 33 38l42 49q11 13 39 49t41 58l31 51q17 30 24 54.5t7 47.5q0 68 -33.5 109.5t-95 41.5t-94.5 -50q-29 -45 -29 -97q0 -6 1 -13h-207q10 139 95 227.5t234 88.5q137 0 231.5 -86t94.5 -211q0 -94 -45 -171t-129 -167l-147 -158h327v-158h-676z" />
<glyph unicode="&#xb3;" horiz-adv-x="708" d="M23 903h196q4 -57 42 -96t101 -39q61 0 98.5 45t37.5 102q0 59 -39 106q-36 42 -92 42h-11l-37 -2v129h23q61 0 94 35t33 94q0 49 -30.5 83t-84.5 34q-49 0 -77.5 -35t-30.5 -82h-187q12 123 93 194.5t215 71.5q129 0 208.5 -70.5t79.5 -189.5q0 -133 -96 -195 q63 -27 96 -90t33 -135q0 -135 -93 -215t-241 -80q-137 0 -230 84t-101 209z" />
<glyph unicode="&#xb4;" horiz-adv-x="778" d="M162 1241l246 344l208 -127l-309 -307z" />
<glyph unicode="&#xb5;" horiz-adv-x="1095" d="M96 -537v1543h287v-545q0 -252 164 -252t164 252v545h286v-592q0 -446 -450 -447q-14 0 -28.5 2t-25 3t-23.5 7.5t-18.5 8.5t-19.5 10t-16 9t-19 11l-14 11v-566h-287z" />
<glyph unicode="&#xb6;" horiz-adv-x="1181" d="M43 1018q-1 19 -1 38q0 173 117 322q130 166 324 166h660v-192h-125v-1665h-213v1665h-127v-1665h-213v893q-176 0 -292 116.5t-130 321.5z" />
<glyph unicode="&#xb7;" horiz-adv-x="591" d="M115 526.5q0 75.5 53 128t129 52.5t129 -52.5t53 -128t-53 -130t-129 -54.5t-129 54.5t-53 130z" />
<glyph unicode="&#xb8;" horiz-adv-x="778" d="M195 -344l200 303l189 -96l-238 -285z" />
<glyph unicode="&#xb9;" horiz-adv-x="708" d="M190 1389v155h328v-926h-196v771h-132z" />
<glyph unicode="&#xba;" horiz-adv-x="694" d="M4 1263.5q0 141.5 96.5 231.5t248 90t247.5 -90t96 -231.5t-95 -231.5t-248.5 -90t-249 90t-95.5 231.5zM195 1265.5q0 -65.5 43 -118.5t110.5 -53t110.5 53t43 118.5t-42 117t-111.5 51.5t-111.5 -51.5t-42 -117z" />
<glyph unicode="&#xbb;" horiz-adv-x="1052" d="M102 283l256 372l-254 383l177 115l325 -498l-325 -491zM512 283l256 372l-254 383l176 115l326 -498l-326 -491z" />
<glyph unicode="&#xbc;" horiz-adv-x="1775" d="M82 1389v155h328v-926h-197v771h-131zM365 8l829 1589l139 -69l-827 -1591zM963 164v80l446 700h178v-635h107v-145h-107v-164h-184v164h-440zM1188 309h215v369h-4z" />
<glyph unicode="&#xbd;" horiz-adv-x="1775" d="M82 1389v155h328v-926h-197v771h-131zM270 8l830 1589l139 -69l-827 -1591zM1018 0l256 297q2 2 33 38l42 49q11 13 38.5 49t40.5 57l31 52q17 30 24.5 54.5t7.5 46.5q0 68 -34 110t-95.5 42t-93.5 -51q-29 -45 -29 -96v-13h-207q10 139 95 227t235 88q137 0 231.5 -86 t94.5 -211q0 -94 -45.5 -170.5t-129.5 -167.5l-147 -157h328v-158h-676z" />
<glyph unicode="&#xbe;" horiz-adv-x="1775" d="M82 903h197q4 -57 42.5 -96t100 -39t98.5 45t37 102q0 59 -39 106q-36 42 -92 42h-10l-37 -2v129h22q61 0 94 35t33 94q0 49 -30.5 83t-83.5 34q-49 0 -78 -35t-31 -82h-186q12 123 93 194.5t214 71.5q129 0 209 -70.5t80 -189.5q0 -133 -97 -195q63 -27 96.5 -90 t33.5 -135q0 -135 -93.5 -215t-240.5 -80q-137 0 -230.5 84t-101.5 209zM471 8l829 1589l140 -69l-828 -1591zM963 164v80l446 700h178v-635h107v-145h-107v-164h-184v164h-440zM1188 309h215v369h-4z" />
<glyph unicode="&#xbf;" horiz-adv-x="997" d="M61 -100q0 152 91.5 270.5t238.5 151.5l17 196h286v-407q-33 8 -73 8q-109 0 -186 -61.5t-77 -168.5q0 -70 38 -125t103.5 -55t101.5 50.5t36 117.5v25h299v-22q0 -170 -120 -292q-128 -129 -314 -129q-188 0 -314.5 126.5t-126.5 314.5zM365 872.5q0 75.5 53 128 t129 52.5t129 -52.5t53 -128t-53 -130t-129 -54.5t-129 54.5t-53 130z" />
<glyph unicode="&#xc0;" horiz-adv-x="1384" d="M-18 0l602 1585h233l586 -1585h-322l-118 326h-537l-127 -326h-317zM414 1925l209 127l245 -344l-145 -90zM512 571h367l-193 562h-4z" />
<glyph unicode="&#xc1;" horiz-adv-x="1384" d="M-18 0l602 1585h233l586 -1585h-322l-118 326h-537l-127 -326h-317zM512 571h367l-193 562h-4zM526 1708l246 344l209 -127l-309 -307z" />
<glyph unicode="&#xc2;" horiz-adv-x="1384" d="M-18 0l602 1585h233l586 -1585h-322l-118 326h-537l-127 -326h-317zM344 1737l348 315l348 -315l-122 -135l-226 213l-225 -213zM512 571h367l-193 562h-4z" />
<glyph unicode="&#xc3;" horiz-adv-x="1384" d="M-18 0l602 1585h233l586 -1585h-322l-118 326h-537l-127 -326h-317zM303 1704q8 104 67.5 194.5t155.5 90.5q51 0 158 -43q117 -45 133 -45q27 0 46.5 14t26.5 26.5t23 45.5h170q-20 -117 -81.5 -203t-165.5 -86q-43 0 -141.5 45t-135.5 45q-63 0 -88 -84h-168zM512 571 h367l-193 562h-4z" />
<glyph unicode="&#xc4;" horiz-adv-x="1384" d="M-18 0l602 1585h233l586 -1585h-322l-118 326h-537l-127 -326h-317zM313 1863.5q0 67.5 48.5 116t116 48.5t115.5 -48.5t48 -116t-48 -115.5t-115.5 -48t-116 48t-48.5 115.5zM512 571h367l-193 562h-4zM745 1863.5q0 67.5 48.5 116t116 48.5t115.5 -48.5t48 -116 t-48 -115.5t-115.5 -48t-116 48t-48.5 115.5z" />
<glyph unicode="&#xc5;" horiz-adv-x="1384" d="M-18 0l602 1585h233l586 -1585h-322l-118 326h-537l-127 -326h-317zM487 1847q0 84 60.5 144.5t144.5 60.5t144.5 -60.5t60.5 -144.5q0 -86 -60.5 -146.5t-144.5 -60.5t-144.5 60.5t-60.5 146.5zM512 571h367l-193 562h-4zM608 1847q0 -35 24.5 -60.5t59.5 -25.5 t59.5 25.5t24.5 60.5t-24.5 59.5t-59.5 24.5t-59.5 -24.5t-24.5 -59.5z" />
<glyph unicode="&#xc6;" horiz-adv-x="1886" d="M-18 0l600 1544h761l95 -262h-512l125 -342h503l95 -262h-504l153 -416h512l93 -262h-826l-121 326h-534l-121 -326h-319zM510 571h364l-190 525h-4z" />
<glyph unicode="&#xc7;" horiz-adv-x="1230" d="M37 760q0 219 94 407.5t271.5 303t396.5 114.5q180 0 344 -90v-360q-135 164 -340 163q-207 0 -331 -159.5t-124 -372.5q0 -207 126 -363.5t327 -156.5q94 0 185 45t157 119v-359q-195 -92 -350 -92q-319 0 -537.5 237.5t-218.5 563.5zM422 -344l201 303l188 -96 l-238 -285z" />
<glyph unicode="&#xc8;" horiz-adv-x="999" d="M111 0v1544h798v-262h-497v-340h479v-262h-479v-418h497v-262h-798zM221 1925l209 127l246 -344l-146 -90z" />
<glyph unicode="&#xc9;" horiz-adv-x="999" d="M111 0v1544h798v-262h-497v-340h479v-262h-479v-418h497v-262h-798zM334 1708l246 344l208 -127l-309 -307z" />
<glyph unicode="&#xca;" horiz-adv-x="999" d="M111 0v1544h798v-262h-497v-340h479v-262h-479v-418h497v-262h-798zM152 1737l348 315l348 -315l-123 -135l-225 213l-226 -213z" />
<glyph unicode="&#xcb;" horiz-adv-x="999" d="M111 0v1544h798v-262h-497v-340h479v-262h-479v-418h497v-262h-798zM121 1863.5q0 67.5 48 116t115.5 48.5t116 -48.5t48.5 -116t-48.5 -115.5t-116 -48t-115.5 48t-48 115.5zM553 1863.5q0 67.5 48 116t115.5 48.5t116 -48.5t48.5 -116t-48.5 -115.5t-116 -48t-115.5 48 t-48 115.5z" />
<glyph unicode="&#xcc;" horiz-adv-x="520" d="M2 1925l209 127l246 -344l-146 -90zM111 0v1544h301v-1544h-301z" />
<glyph unicode="&#xcd;" horiz-adv-x="520" d="M63 1708l246 344l209 -127l-309 -307zM111 0v1544h301v-1544h-301z" />
<glyph unicode="&#xce;" horiz-adv-x="520" d="M-88 1737l348 315l348 -315l-123 -135l-225 213l-225 -213zM111 0v1544h301v-1544h-301z" />
<glyph unicode="&#xcf;" horiz-adv-x="520" d="M-119 1863.5q0 67.5 48 116t116 48.5t116 -48.5t48 -116t-48 -115.5t-116 -48t-116 48t-48 115.5zM111 0v1544h301v-1544h-301zM313 1863.5q0 67.5 48.5 116t116 48.5t115.5 -48.5t48 -116t-48 -115.5t-115.5 -48t-116 48t-48.5 115.5z" />
<glyph unicode="&#xd0;" horiz-adv-x="1323" d="M-37 690v246h148v608h430q332 0 538.5 -220t206.5 -554q0 -330 -210 -550t-537 -220h-428v690h-148zM412 262h49q514 0 514 510t-514 510h-49v-346h231v-246h-231v-428z" />
<glyph unicode="&#xd1;" horiz-adv-x="1554" d="M111 0v1585h217l813 -1079h4v1038h301v-1575h-217l-813 1080h-4v-1049h-301zM389 1704q8 104 67.5 194.5t155.5 90.5q51 0 158 -43q117 -45 133 -45q27 0 46.5 14t26.5 26.5t23 45.5h170q-20 -117 -81.5 -203t-165.5 -86q-43 0 -141.5 45t-135.5 45q-63 0 -88 -84h-168z " />
<glyph unicode="&#xd2;" horiz-adv-x="1601" d="M37 774q0 350 212 580.5t552 230.5t552 -230.5t212 -580.5t-209 -582.5t-555 -232.5t-555 232.5t-209 582.5zM348 786q0 -94 24.5 -184t76 -170t142.5 -128t210 -48t210 48t142 128t75.5 170t24.5 184q0 199 -124.5 350.5t-327.5 151.5t-328 -151.5t-125 -350.5z M522 1925l209 127l246 -344l-146 -90z" />
<glyph unicode="&#xd3;" horiz-adv-x="1601" d="M37 774q0 350 212 580.5t552 230.5t552 -230.5t212 -580.5t-209 -582.5t-555 -232.5t-555 232.5t-209 582.5zM348 786q0 -94 24.5 -184t76 -170t142.5 -128t210 -48t210 48t142 128t75.5 170t24.5 184q0 199 -124.5 350.5t-327.5 151.5t-328 -151.5t-125 -350.5z M635 1708l246 344l209 -127l-310 -307z" />
<glyph unicode="&#xd4;" horiz-adv-x="1601" d="M37 774q0 350 212 580.5t552 230.5t552 -230.5t212 -580.5t-209 -582.5t-555 -232.5t-555 232.5t-209 582.5zM348 786q0 -94 24.5 -184t76 -170t142.5 -128t210 -48t210 48t142 128t75.5 170t24.5 184q0 199 -124.5 350.5t-327.5 151.5t-328 -151.5t-125 -350.5z M453 1737l348 315l348 -315l-123 -135l-225 213l-226 -213z" />
<glyph unicode="&#xd5;" horiz-adv-x="1601" d="M37 774q0 350 212 580.5t552 230.5t552 -230.5t212 -580.5t-209 -582.5t-555 -232.5t-555 232.5t-209 582.5zM348 786q0 -94 24.5 -184t76 -170t142.5 -128t210 -48t210 48t142 128t75.5 170t24.5 184q0 199 -124.5 350.5t-327.5 151.5t-328 -151.5t-125 -350.5z M412 1704q8 104 67.5 194.5t155.5 90.5q49 0 158 -43q117 -45 133 -45q27 0 46 14t26.5 26.5t23.5 45.5h170q-20 -117 -81.5 -203t-166.5 -86q-43 0 -141 45t-135 45q-63 0 -88 -84h-168z" />
<glyph unicode="&#xd6;" horiz-adv-x="1601" d="M37 774q0 350 212 580.5t552 230.5t552 -230.5t212 -580.5t-209 -582.5t-555 -232.5t-555 232.5t-209 582.5zM348 786q0 -94 24.5 -184t76 -170t142.5 -128t210 -48t210 48t142 128t75.5 170t24.5 184q0 199 -124.5 350.5t-327.5 151.5t-328 -151.5t-125 -350.5z M422 1863.5q0 67.5 48 116t115.5 48.5t116 -48.5t48.5 -116t-48.5 -115.5t-116 -48t-115.5 48t-48 115.5zM854 1863.5q0 67.5 48 116t115.5 48.5t116 -48.5t48.5 -116t-48.5 -115.5t-116 -48t-115.5 48t-48 115.5z" />
<glyph unicode="&#xd7;" d="M68 172l354 352l-354 353l172 172l354 -355l350 355l172 -172l-352 -353l352 -352l-172 -172l-352 354l-352 -354z" />
<glyph unicode="&#xd8;" horiz-adv-x="1601" d="M-8 68l192 202q-147 211 -147 504q0 350 212 580.5t552 230.5q276 0 475 -160l176 185l158 -140l-191 -200q145 -209 146 -496q0 -350 -209 -582.5t-555 -232.5q-276 0 -473 158l-185 -195zM348 786q0 -154 60 -280l655 694q-111 88 -262 88q-203 0 -328 -151.5 t-125 -350.5zM539 340q106 -84 262 -84q119 0 210 48t142 128t75.5 170t24.5 184q0 133 -57 246z" />
<glyph unicode="&#xd9;" horiz-adv-x="1351" d="M102 621v923h301v-864q0 -70 3.5 -122t19.5 -120.5t43 -111.5t80 -74t127 -31t127 31t79.5 74t43 111.5t19.5 120.5t3 122v864h301v-923q0 -303 -139 -482.5t-434 -179.5t-434.5 179.5t-139.5 482.5zM346 1925l209 127l246 -344l-146 -90z" />
<glyph unicode="&#xda;" horiz-adv-x="1351" d="M102 621v923h301v-864q0 -70 3.5 -122t19.5 -120.5t43 -111.5t80 -74t127 -31t127 31t79.5 74t43 111.5t19.5 120.5t3 122v864h301v-923q0 -303 -139 -482.5t-434 -179.5t-434.5 179.5t-139.5 482.5zM551 1708l246 344l209 -127l-310 -307z" />
<glyph unicode="&#xdb;" horiz-adv-x="1351" d="M102 621v923h301v-864q0 -70 3.5 -122t19.5 -120.5t43 -111.5t80 -74t127 -31t127 31t79.5 74t43 111.5t19.5 120.5t3 122v864h301v-923q0 -303 -139 -482.5t-434 -179.5t-434.5 179.5t-139.5 482.5zM328 1737l348 315l348 -315l-123 -135l-225 213l-225 -213z" />
<glyph unicode="&#xdc;" horiz-adv-x="1351" d="M102 621v923h301v-864q0 -70 3.5 -122t19.5 -120.5t43 -111.5t80 -74t127 -31t127 31t79.5 74t43 111.5t19.5 120.5t3 122v864h301v-923q0 -303 -139 -482.5t-434 -179.5t-434.5 179.5t-139.5 482.5zM313 1863.5q0 67.5 48.5 116t116 48.5t115.5 -48.5t48 -116 t-48 -115.5t-115.5 -48t-116 48t-48.5 115.5zM745 1863.5q0 67.5 48.5 116t116 48.5t115.5 -48.5t48 -116t-48 -115.5t-115.5 -48t-116 48t-48.5 115.5z" />
<glyph unicode="&#xdd;" horiz-adv-x="1202" d="M-33 1544h350l271 -536l295 536h352l-487 -835v-709h-302v709zM508 1708l246 344l209 -127l-310 -307z" />
<glyph unicode="&#xde;" horiz-adv-x="1081" d="M111 0v1544h301v-246h108q535 0 535 -479q0 -244 -127 -365.5t-367 -121.5h-149v-332h-301zM412 1049v-467h61q145 0 210 49t65 190q0 137 -70 182.5t-213 45.5h-53z" />
<glyph unicode="&#xdf;" horiz-adv-x="1148" d="M102 0v1237q0 244 108.5 384t346.5 140q201 0 326 -122.5t125 -323.5q0 -209 -156 -332q133 -57 199.5 -183t66.5 -280q0 -250 -154.5 -401.5t-406.5 -151.5h-41v250q131 -4 216 88t85 227.5t-83 221.5t-218 88v241q102 -2 159.5 61.5t57.5 166.5q0 84 -48 142t-130 58 q-35 0 -61.5 -12t-44 -29.5t-29.5 -50t-18.5 -56.5t-9.5 -66t-4 -62.5t0 -64.5t1 -52v-1118h-287z" />
<glyph unicode="&#xe0;" horiz-adv-x="1157" d="M31 508q0 213 126 371.5t332 158.5q172 0 281 -127v95h283v-1006h-283v92h-4q-96 -125 -272 -125q-211 0 -337 162t-126 379zM270 1458l209 127l246 -344l-145 -90zM322 503.5q0 -108.5 66.5 -195.5t171 -87t172 87t67.5 195.5t-67.5 194.5t-172 86t-171 -86 t-66.5 -194.5z" />
<glyph unicode="&#xe1;" horiz-adv-x="1157" d="M31 508q0 213 126 371.5t332 158.5q172 0 281 -127v95h283v-1006h-283v92h-4q-96 -125 -272 -125q-211 0 -337 162t-126 379zM322 503.5q0 -108.5 66.5 -195.5t171 -87t172 87t67.5 195.5t-67.5 194.5t-172 86t-171 -86t-66.5 -194.5zM434 1241l246 344l209 -127 l-309 -307z" />
<glyph unicode="&#xe2;" horiz-adv-x="1157" d="M31 508q0 213 126 371.5t332 158.5q172 0 281 -127v95h283v-1006h-283v92h-4q-96 -125 -272 -125q-211 0 -337 162t-126 379zM231 1270l349 315l348 -315l-123 -135l-225 213l-226 -213zM322 503.5q0 -108.5 66.5 -195.5t171 -87t172 87t67.5 195.5t-67.5 194.5t-172 86 t-171 -86t-66.5 -194.5z" />
<glyph unicode="&#xe3;" horiz-adv-x="1157" d="M31 508q0 213 126 371.5t332 158.5q172 0 281 -127v95h283v-1006h-283v92h-4q-96 -125 -272 -125q-211 0 -337 162t-126 379zM190 1237q8 104 67.5 194.5t156.5 90.5q49 0 157 -43q117 -45 134 -45q27 0 46 14t26 26.5t24 45.5h170q-20 -117 -82 -203t-166 -86 q-43 0 -141.5 45t-135.5 45q-63 0 -88 -84h-168zM322 503.5q0 -108.5 66.5 -195.5t171 -87t172 87t67.5 195.5t-67.5 194.5t-172 86t-171 -86t-66.5 -194.5z" />
<glyph unicode="&#xe4;" horiz-adv-x="1157" d="M31 508q0 213 126 371.5t332 158.5q172 0 281 -127v95h283v-1006h-283v92h-4q-96 -125 -272 -125q-211 0 -337 162t-126 379zM201 1396.5q0 67.5 48 116t115.5 48.5t115.5 -48.5t48 -116t-48 -115.5t-115.5 -48t-115.5 48t-48 115.5zM322 503.5q0 -108.5 66.5 -195.5 t171 -87t172 87t67.5 195.5t-67.5 194.5t-172 86t-171 -86t-66.5 -194.5zM633 1396.5q0 67.5 48 116t115.5 48.5t116 -48.5t48.5 -116t-48.5 -115.5t-116 -48t-115.5 48t-48 115.5z" />
<glyph unicode="&#xe5;" horiz-adv-x="1157" d="M31 508q0 213 126 371.5t332 158.5q172 0 281 -127v95h283v-1006h-283v92h-4q-96 -125 -272 -125q-211 0 -337 162t-126 379zM322 503.5q0 -108.5 66.5 -195.5t171 -87t172 87t67.5 195.5t-67.5 194.5t-172 86t-171 -86t-66.5 -194.5zM375 1380q0 84 60.5 144.5 t144.5 60.5t144 -60.5t60 -144.5q0 -86 -60 -146t-144 -60t-144.5 60t-60.5 146zM496 1380.5q0 -34.5 24.5 -60.5t59 -26t59.5 26t25 60.5t-25 59t-59.5 24.5t-59 -24.5t-24.5 -59z" />
<glyph unicode="&#xe6;" horiz-adv-x="1622" d="M23 297q0 156 111.5 243t271.5 87q131 0 233 -56v33q0 106 -61.5 160.5t-169.5 54.5q-123 0 -246 -45v223q164 41 280 41q100 0 192.5 -37.5t137.5 -115.5q121 154 342 153q236 0 356.5 -152.5t120.5 -393.5v-35h-661q0 -111 48 -191t150 -80q125 0 193 138l264 -43 q-51 -150 -174 -232t-283 -82q-250 0 -358 166q-61 -80 -157.5 -123t-200.5 -43q-164 0 -276.5 85t-112.5 245zM297 307q0 -66 50 -101.5t120 -35.5q63 0 116.5 39t53.5 100q0 66 -56.5 100.5t-125.5 34.5q-66 0 -112 -37t-46 -100zM934 635h383q-12 84 -62.5 143.5 t-128.5 59.5q-82 0 -131 -58.5t-61 -144.5z" />
<glyph unicode="&#xe7;" horiz-adv-x="862" d="M31 500q0 227 148.5 382.5t373.5 155.5q131 0 233 -63v-277q-98 98 -211 99q-115 0 -184 -90.5t-69 -208.5q0 -123 72.5 -206t191.5 -83q115 0 200 96v-276q-111 -61 -247 -62q-219 0 -363.5 156t-144.5 377zM238 -344l200 303l189 -96l-238 -285z" />
<glyph unicode="&#xe8;" horiz-adv-x="1026" d="M31 494q0 240 126 392t361.5 152t356 -152.5t120.5 -393.5v-35h-661q0 -111 48 -191t150 -80q125 0 193 138l264 -43q-51 -150 -174 -232t-283 -82q-229 0 -365 147t-136 380zM205 1458l209 127l245 -344l-145 -90zM342 635h383q-12 84 -62.5 143.5t-127.5 59.5 q-82 0 -131.5 -58.5t-61.5 -144.5z" />
<glyph unicode="&#xe9;" horiz-adv-x="1026" d="M31 494q0 240 126 392t361.5 152t356 -152.5t120.5 -393.5v-35h-661q0 -111 48 -191t150 -80q125 0 193 138l264 -43q-51 -150 -174 -232t-283 -82q-229 0 -365 147t-136 380zM342 635h383q-12 84 -62.5 143.5t-127.5 59.5q-82 0 -131.5 -58.5t-61.5 -144.5zM369 1241 l245 344l209 -127l-309 -307z" />
<glyph unicode="&#xea;" horiz-adv-x="1026" d="M31 494q0 240 126 392t361.5 152t356 -152.5t120.5 -393.5v-35h-661q0 -111 48 -191t150 -80q125 0 193 138l264 -43q-51 -150 -174 -232t-283 -82q-229 0 -365 147t-136 380zM166 1270l348 315l348 -315l-123 -135l-225 213l-225 -213zM342 635h383q-12 84 -62.5 143.5 t-127.5 59.5q-82 0 -131.5 -58.5t-61.5 -144.5z" />
<glyph unicode="&#xeb;" horiz-adv-x="1026" d="M31 494q0 240 126 392t361.5 152t356 -152.5t120.5 -393.5v-35h-661q0 -111 48 -191t150 -80q125 0 193 138l264 -43q-51 -150 -174 -232t-283 -82q-229 0 -365 147t-136 380zM135 1396.5q0 67.5 48 116t116 48.5t116 -48.5t48 -116t-48 -115.5t-116 -48t-116 48 t-48 115.5zM342 635h383q-12 84 -62.5 143.5t-127.5 59.5q-82 0 -131.5 -58.5t-61.5 -144.5zM567 1396.5q0 67.5 48.5 116t116 48.5t115.5 -48.5t48 -116t-48 -115.5t-115.5 -48t-116 48t-48.5 115.5z" />
<glyph unicode="&#xec;" horiz-adv-x="518" d="M-20 1458l208 127l246 -344l-145 -90zM117 0v1006h286v-1006h-286z" />
<glyph unicode="&#xed;" horiz-adv-x="518" d="M82 1241l246 344l209 -127l-310 -307zM117 0v1006h286v-1006h-286z" />
<glyph unicode="&#xee;" horiz-adv-x="518" d="M-88 1270l348 315l348 -315l-123 -135l-225 213l-225 -213zM117 0v1006h286v-1006h-286z" />
<glyph unicode="&#xef;" horiz-adv-x="518" d="M-119 1396.5q0 67.5 48 116t116 48.5t116 -48.5t48 -116t-48 -115.5t-116 -48t-116 48t-48 115.5zM117 0v1006h286v-1006h-286zM313 1396.5q0 67.5 48.5 116t116 48.5t115.5 -48.5t48 -116t-48 -115.5t-115.5 -48t-116 48t-48.5 115.5z" />
<glyph unicode="&#xf0;" horiz-adv-x="1122" d="M33 504q0 236 143 381t352 145q76 0 164 -31q-82 164 -217 312l-246 -158l-123 125l246 156q-94 92 -202 176l202 153q115 -88 217 -188l246 156l123 -123l-246 -158q63 -70 101 -116t101.5 -141t100.5 -182t66 -214t29 -262q0 -160 -52.5 -277t-136.5 -177.5t-169 -87 t-171 -26.5q-223 0 -375.5 145.5t-152.5 391.5zM324 502q0 -109 66.5 -195t171 -86t171 86t66.5 195q0 111 -65.5 196.5t-172 85.5t-172 -85.5t-65.5 -196.5z" />
<glyph unicode="&#xf1;" horiz-adv-x="1105" d="M102 0v1006h287v-93h4q82 125 262 125q348 0 349 -424v-614h-287v532v78q0 20 -8.5 68.5t-22.5 70t-46 41t-79 19.5q-59 0 -97 -28.5t-52.5 -85t-18.5 -95.5t-4 -102v-498h-287zM164 1237q8 104 67.5 194.5t155.5 90.5q51 0 158 -43q117 -45 133 -45q27 0 46 14 t26.5 26.5t23.5 45.5h170q-20 -117 -81.5 -203t-166.5 -86q-43 0 -141 45t-135 45q-63 0 -88 -84h-168z" />
<glyph unicode="&#xf2;" horiz-adv-x="1122" d="M33 501.5q0 235.5 147.5 386t381 150.5t381 -150.5t147.5 -386t-146.5 -385t-382 -149.5t-382 149.5t-146.5 385zM252 1458l209 127l246 -344l-146 -90zM324 502q0 -109 66.5 -195t171 -86t171 86t66.5 195q0 111 -65.5 196.5t-172 85.5t-172 -85.5t-65.5 -196.5z" />
<glyph unicode="&#xf3;" horiz-adv-x="1122" d="M33 501.5q0 235.5 147.5 386t381 150.5t381 -150.5t147.5 -386t-146.5 -385t-382 -149.5t-382 149.5t-146.5 385zM324 502q0 -109 66.5 -195t171 -86t171 86t66.5 195q0 111 -65.5 196.5t-172 85.5t-172 -85.5t-65.5 -196.5zM416 1241l246 344l208 -127l-309 -307z" />
<glyph unicode="&#xf4;" horiz-adv-x="1122" d="M33 501.5q0 235.5 147.5 386t381 150.5t381 -150.5t147.5 -386t-146.5 -385t-382 -149.5t-382 149.5t-146.5 385zM213 1270l348 315l348 -315l-123 -135l-225 213l-225 -213zM324 502q0 -109 66.5 -195t171 -86t171 86t66.5 195q0 111 -65.5 196.5t-172 85.5t-172 -85.5 t-65.5 -196.5z" />
<glyph unicode="&#xf5;" horiz-adv-x="1122" d="M33 501.5q0 235.5 147.5 386t381 150.5t381 -150.5t147.5 -386t-146.5 -385t-382 -149.5t-382 149.5t-146.5 385zM172 1237q8 104 67.5 194.5t155.5 90.5q51 0 158 -43q117 -45 133 -45q27 0 46.5 14t26.5 26.5t23 45.5h170q-20 -117 -81.5 -203t-165.5 -86 q-43 0 -141.5 45t-135.5 45q-63 0 -88 -84h-168zM324 502q0 -109 66.5 -195t171 -86t171 86t66.5 195q0 111 -65.5 196.5t-172 85.5t-172 -85.5t-65.5 -196.5z" />
<glyph unicode="&#xf6;" horiz-adv-x="1122" d="M33 501.5q0 235.5 147.5 386t381 150.5t381 -150.5t147.5 -386t-146.5 -385t-382 -149.5t-382 149.5t-146.5 385zM182 1396.5q0 67.5 48.5 116t116 48.5t115.5 -48.5t48 -116t-48 -115.5t-115.5 -48t-116 48t-48.5 115.5zM324 502q0 -109 66.5 -195t171 -86t171 86 t66.5 195q0 111 -65.5 196.5t-172 85.5t-172 -85.5t-65.5 -196.5zM614 1396.5q0 67.5 48.5 116t116 48.5t115.5 -48.5t48 -116t-48 -115.5t-115.5 -48t-116 48t-48.5 115.5z" />
<glyph unicode="&#xf7;" d="M68 403v242h1048v-242h-1048zM422 129q0 70 50 120t120 50t120 -50t50 -120q0 -72 -49 -121t-121 -49t-121 49t-49 121zM422 920q0 70 50 120t120 50t120 -50.5t50 -119.5q0 -72 -49 -121t-121 -49t-121 49t-49 121z" />
<glyph unicode="&#xf8;" horiz-adv-x="1155" d="M-12 20l149 148q-104 135 -104 334q0 236 147.5 386t380.5 150q201 0 340 -112l154 151l112 -102l-163 -164q86 -133 86 -309q0 -236 -146.5 -385.5t-382.5 -149.5q-184 0 -313 94l-148 -145zM324 502q0 -68 28 -131l359 352q-66 61 -150 61q-106 0 -171.5 -85.5 t-65.5 -196.5zM436 262q55 -41 125 -41q104 0 171 86t67 195q0 49 -17 102z" />
<glyph unicode="&#xf9;" horiz-adv-x="1095" d="M96 414v592h287v-545q0 -252 164 -252t164 252v545h286v-592q0 -446 -450.5 -446t-450.5 446zM240 1458l209 127l245 -344l-145 -90z" />
<glyph unicode="&#xfa;" horiz-adv-x="1095" d="M96 414v592h287v-545q0 -252 164 -252t164 252v545h286v-592q0 -446 -450.5 -446t-450.5 446zM403 1241l246 344l209 -127l-309 -307z" />
<glyph unicode="&#xfb;" horiz-adv-x="1095" d="M96 414v592h287v-545q0 -252 164 -252t164 252v545h286v-592q0 -446 -450.5 -446t-450.5 446zM201 1270l348 315l348 -315l-123 -135l-225 213l-225 -213z" />
<glyph unicode="&#xfc;" horiz-adv-x="1095" d="M96 414v592h287v-545q0 -252 164 -252t164 252v545h286v-592q0 -446 -450.5 -446t-450.5 446zM170 1396.5q0 67.5 48 116t115.5 48.5t116 -48.5t48.5 -116t-48.5 -115.5t-116 -48t-115.5 48t-48 115.5zM602 1396.5q0 67.5 48 116t116 48.5t116 -48.5t48 -116t-48 -115.5 t-116 -48t-116 48t-48 115.5z" />
<glyph unicode="&#xfd;" horiz-adv-x="1064" d="M-37 1006h326l239 -572l258 572h320l-731 -1543h-316l332 691zM418 1241l246 344l208 -127l-309 -307z" />
<glyph unicode="&#xfe;" horiz-adv-x="1157" d="M102 -537v2274h287v-824q104 125 279 125q205 0 331.5 -160.5t126.5 -369.5q0 -219 -126 -380t-338 -161q-80 0 -154 34t-115 93h-4v-631h-287zM360 503.5q0 -108.5 67 -195.5t171 -87t171 87t67 195.5t-67 194.5t-171 86t-171 -86t-67 -194.5z" />
<glyph unicode="&#xff;" horiz-adv-x="1064" d="M-37 1006h326l239 -572l258 572h320l-731 -1543h-316l332 691zM170 1396.5q0 67.5 48 116t115.5 48.5t116 -48.5t48.5 -116t-48.5 -115.5t-116 -48t-115.5 48t-48 115.5zM602 1396.5q0 67.5 48 116t116 48.5t116 -48.5t48 -116t-48 -115.5t-116 -48t-116 48t-48 115.5z " />
<glyph unicode="&#x152;" horiz-adv-x="2127" d="M37 768q0 207 93 393.5t266 305t382 118.5q137 0 262 -56t207 -159h4v174h787v-262h-488v-342h465v-262h-465v-416h488v-262h-787v174q-186 -215 -473 -215q-207 0 -380 119t-267 303t-94 387zM324 768q0 -201 125.5 -356.5t322.5 -155.5q199 0 326 155.5t127 356.5 q0 205 -127 362.5t-326 157.5q-197 0 -322.5 -157.5t-125.5 -362.5z" />
<glyph unicode="&#x153;" horiz-adv-x="1787" d="M29 501.5q0 235.5 147.5 386t380.5 150.5q219 0 367 -168q121 168 358 168q236 0 356.5 -152.5t120.5 -393.5v-35h-661q0 -111 48 -191t150 -80q125 0 193 138l264 -43q-51 -150 -174 -232t-283 -82q-254 0 -372 174q-129 -174 -367 -174q-236 0 -382 149.5t-146 385z M319 502q0 -109 67 -195t171.5 -86t171 86t66.5 195q0 111 -65.5 196.5t-172 85.5t-172.5 -85.5t-66 -196.5zM1096 635h383q-12 84 -62.5 143.5t-128.5 59.5q-82 0 -131 -58.5t-61 -144.5z" />
<glyph unicode="&#x178;" horiz-adv-x="1202" d="M-33 1544h350l271 -536l295 536h352l-487 -835v-709h-302v709zM223 1863.5q0 67.5 48 116t116 48.5t116 -48.5t48 -116t-48 -115.5t-116 -48t-116 48t-48 115.5zM655 1863.5q0 67.5 48.5 116t116 48.5t115.5 -48.5t48 -116t-48 -115.5t-115.5 -48t-116 48t-48.5 115.5z " />
<glyph unicode="&#x2c6;" horiz-adv-x="819" d="M61 1270l349 315l348 -315l-123 -135l-225 213l-226 -213z" />
<glyph unicode="&#x2dc;" horiz-adv-x="819" d="M20 1237q8 104 67.5 194.5t156.5 90.5q51 0 157 -43q117 -45 134 -45q27 0 46 14t26 26.5t24 45.5h170q-20 -117 -82 -203t-166 -86q-43 0 -141.5 45t-135.5 45q-63 0 -88 -84h-168z" />
<glyph unicode="&#x2013;" horiz-adv-x="1024" d="M0 539v235h1024v-235h-1024z" />
<glyph unicode="&#x2014;" horiz-adv-x="2048" d="M266 539v235h1516v-235h-1516z" />
<glyph unicode="&#x2018;" horiz-adv-x="606" d="M61 969l295 616l191 -22l-221 -623z" />
<glyph unicode="&#x2019;" horiz-adv-x="606" d="M61 963l224 622l262 -31l-295 -614z" />
<glyph unicode="&#x201a;" horiz-adv-x="606" d="M61 -303l224 622l262 -28l-295 -617z" />
<glyph unicode="&#x201c;" horiz-adv-x="999" d="M61 969l295 616l191 -22l-221 -623zM453 969l295 616l190 -22l-221 -623z" />
<glyph unicode="&#x201d;" horiz-adv-x="999" d="M61 963l224 622l262 -31l-295 -614zM453 963l223 622l262 -31l-295 -614z" />
<glyph unicode="&#x201e;" horiz-adv-x="999" d="M61 -303l224 622l262 -28l-295 -617zM453 -303l223 622l262 -28l-295 -617z" />
<glyph unicode="&#x2022;" horiz-adv-x="1181" d="M205 778q0 158 110 269q113 113 275 112.5t274.5 -113t112.5 -274.5q0 -160 -113.5 -272.5t-273.5 -112.5t-272.5 113t-112.5 278z" />
<glyph unicode="&#x2026;" horiz-adv-x="2048" d="M160 149.5q0 75.5 53 128t129 52.5t129 -52.5t53 -128t-53 -130t-129 -54.5t-129 54.5t-53 130zM842 143.5q0 75.5 53 128t129 52.5t129 -52.5t53 -128t-53 -130t-129 -54.5t-129 54.5t-53 130zM1524 143.5q0 75.5 53 128t129 52.5t129 -52.5t53 -128t-53 -130 t-129 -54.5t-129 54.5t-53 130z" />
<glyph unicode="&#x2039;" horiz-adv-x="643" d="M37 655l325 498l177 -115l-254 -383l256 -372l-179 -119z" />
<glyph unicode="&#x203a;" horiz-adv-x="643" d="M102 283l256 372l-254 383l177 115l325 -498l-325 -491z" />
<glyph unicode="&#x20ac;" d="M41 500l68 209h86q-4 37 -5 71q0 25 5 62h-154l68 209h104q84 532 553 532q213 0 326 -74v-266q-98 86 -285 86q-266 0 -309 -278h526l-70 -209h-481q-2 -18 -2 -62q0 -53 2 -71h434l-69 -209h-340q43 -289 311 -289q186 0 283 88v-272q-100 -66 -326 -66 q-469 0 -549 539h-176z" />
<glyph unicode="&#x2122;" horiz-adv-x="2048" d="M86 1391v153h696v-153h-260v-709h-176v709h-260zM940 682v862h305l201 -563h4l209 563h303v-862h-176v686h-4l-250 -686h-170l-242 686h-4v-686h-176z" />
<glyph unicode="&#xe000;" horiz-adv-x="1004" d="M0 1005h1005v-1005h-1005v1005z" />
<glyph unicode="&#xfb01;" horiz-adv-x="1114" d="M16 764v242h97v294q0 203 92 332t287 129q74 0 137 -32v-256q-70 35 -117 34q-20 0 -36.5 -5t-29 -17t-20.5 -23.5t-13 -31l-8.5 -33t-4.5 -38t-1 -35.5v-35v-29v-254h230v-242h-230v-764h-286v764h-97zM684 1427q0 70 50 120t120 50t120 -50t50 -120q0 -72 -49 -121 t-121 -49t-121 49t-49 121zM711 0v1006h286v-1006h-286z" />
<glyph unicode="&#xfb02;" horiz-adv-x="1112" d="M16 764v242h97v294q0 203 92 332t287 129q74 0 137 -32v-256q-70 35 -117 34q-20 0 -36.5 -5t-29 -17t-20.5 -23.5t-13 -31l-8.5 -33t-4.5 -38t-1 -35.5v-35v-29v-254h230v-242h-230v-764h-286v764h-97zM723 0v1737h287v-1737h-287z" />
<glyph unicode="&#xfb03;" horiz-adv-x="1759" d="M16 764v242h97v294q0 203 92 332t287 129q74 0 137 -32v-256q-70 35 -117 34q-20 0 -36.5 -5t-29 -17t-20.5 -23.5t-13 -31l-8.5 -33t-4.5 -38t-1 -35.5v-35v-29v-254h230v-242h-230v-764h-286v764h-97zM637 764v242h96v294q0 203 92.5 332t286.5 129q74 0 137 -32v-256 q-70 35 -116 34q-20 0 -37 -5t-29 -17t-20.5 -23.5t-13.5 -31t-8 -33t-4 -38t-1 -35.5v-35v-29v-254h229v-242h-229v-764h-287v764h-96zM1331 1427q0 70 50.5 120t120 50t119.5 -50t50 -120q0 -72 -49 -121t-120.5 -49t-121 49t-49.5 121zM1358 0v1006h287v-1006h-287z" />
<glyph unicode="&#xfb04;" horiz-adv-x="1730" d="M16 764v242h97v294q0 203 92 332t287 129q74 0 137 -32v-256q-70 35 -117 34q-20 0 -36.5 -5t-29 -17t-20.5 -23.5t-13 -31l-8.5 -33t-4.5 -38t-1 -35.5v-35v-29v-254h230v-242h-230v-764h-286v764h-97zM637 764v242h96v294q0 203 92.5 332t286.5 129q74 0 137 -32v-256 q-70 35 -116 34q-20 0 -37 -5t-29 -17t-20.5 -23.5t-13.5 -31t-8 -33t-4 -38t-1 -35.5v-35v-29v-254h229v-242h-229v-764h-287v764h-96zM1343 0v1737h287v-1737h-287z" />
</font>
</defs>
</svg>
